# Blender v2.69 (sub 0) OBJ File: 'candles.blend'
# www.blender.org
mtllib ..\..\content\candles.mtl
o Candles_Cylinder
v -0.875114 1.381593 -0.998770
v -0.875114 1.781592 -0.998770
v -0.893010 1.381593 -0.962996
v -0.893010 1.781592 -0.962996
v -0.932939 1.381593 -0.960608
v -0.932939 1.781592 -0.960608
v -0.954971 1.381593 -0.993994
v -0.954971 1.781592 -0.993994
v -0.937075 1.381593 -1.029767
v -0.937075 1.781592 -1.029767
v -0.897146 1.381593 -1.032155
v -0.897146 1.781592 -1.032155
v -0.847164 1.381593 -1.000441
v -0.877587 1.381593 -0.939627
v -0.945466 1.381593 -0.935567
v -0.982921 1.381593 -0.992322
v -0.952498 1.381593 -1.053136
v -0.884619 1.381593 -1.057196
v -0.902575 0.216435 -1.010804
v -0.929140 0.216435 -1.009215
v -0.913996 1.281592 -0.978889
v -0.913996 0.216435 -0.978889
v -0.929140 1.281592 -1.009215
v -0.902575 1.281592 -1.010804
v -0.919112 1.775594 -0.999992
v -0.911432 1.775594 -1.000451
v -0.910973 1.775594 -0.992771
v -0.918653 1.775594 -0.992312
v -0.909643 1.830041 -0.996848
v -0.902196 1.828290 -0.996033
v -0.902719 1.829588 -0.988468
v -0.910166 1.831339 -0.989283
v -0.615578 1.321592 -1.014292
v -0.615578 1.721592 -1.014292
v -0.633474 1.321592 -0.978518
v -0.633474 1.721592 -0.978518
v -0.673402 1.321592 -0.976130
v -0.673402 1.721592 -0.976130
v -0.695435 1.321592 -1.009516
v -0.695435 1.721592 -1.009516
v -0.677539 1.321592 -1.045289
v -0.677539 1.721592 -1.045289
v -0.637610 1.321592 -1.047677
v -0.637610 1.721592 -1.047677
v -0.587628 1.321592 -1.015963
v -0.618051 1.321592 -0.955149
v -0.685930 1.321592 -0.951089
v -0.723385 1.321592 -1.007844
v -0.692961 1.321592 -1.068659
v -0.625083 1.321592 -1.072718
v -0.643039 1.021592 -1.026326
v -0.669604 1.021592 -1.024737
v -0.654460 1.221592 -0.994412
v -0.654460 1.021592 -0.994412
v -0.669604 1.221592 -1.024737
v -0.643039 1.221592 -1.026326
v -0.659576 1.715595 -1.015514
v -0.651896 1.715595 -1.015973
v -0.651436 1.715595 -1.008293
v -0.659117 1.715595 -1.007834
v -0.650107 1.770041 -1.012371
v -0.642660 1.768290 -1.011555
v -0.643183 1.769588 -1.003990
v -0.650630 1.771339 -1.004805
v -1.134650 1.311592 -0.983247
v -1.134650 1.711592 -0.983247
v -1.152546 1.311592 -0.947474
v -1.152546 1.711592 -0.947474
v -1.192475 1.311592 -0.945086
v -1.192475 1.711592 -0.945086
v -1.214507 1.311592 -0.978471
v -1.214507 1.711592 -0.978471
v -1.196611 1.311592 -1.014245
v -1.196611 1.711592 -1.014245
v -1.156682 1.311592 -1.016633
v -1.156682 1.711592 -1.016633
v -1.106700 1.311592 -0.984919
v -1.137124 1.311592 -0.924105
v -1.205002 1.311592 -0.920045
v -1.242457 1.311592 -0.976800
v -1.212034 1.311592 -1.037614
v -1.144155 1.311592 -1.041674
v -1.162111 1.011593 -0.995282
v -1.188676 1.011593 -0.993693
v -1.173532 1.211592 -0.963367
v -1.173532 1.011593 -0.963367
v -1.188676 1.211592 -0.993693
v -1.162111 1.211592 -0.995282
v -1.178648 1.705595 -0.984470
v -1.170968 1.705595 -0.984929
v -1.170509 1.705595 -0.977249
v -1.178189 1.705595 -0.976790
v -1.169180 1.760041 -0.981326
v -1.161732 1.758290 -0.980511
v -1.162255 1.759588 -0.972945
v -1.169703 1.761339 -0.973761
v -0.653870 0.960089 -1.025678
v -0.678413 0.970273 -1.024210
v -0.664280 0.965181 -0.993824
v -0.687371 0.907419 -1.023674
v -0.706156 0.926237 -1.022551
v -0.694902 0.916828 -0.991993
v -0.738442 0.871602 -1.020620
v -0.748608 0.896189 -1.020012
v -0.741664 0.883896 -0.989196
v -0.799308 0.858091 -1.016980
v -0.799308 0.884703 -1.016980
v -0.797447 0.871397 -0.985860
v -1.149779 0.958584 -0.996019
v -1.174322 0.948400 -0.994551
v -1.160189 0.953492 -0.964165
v -1.119643 0.917983 -0.997822
v -1.138427 0.899165 -0.996698
v -1.127174 0.908574 -0.966140
v -1.076291 0.892026 -1.000414
v -1.086457 0.867439 -0.999806
v -1.079513 0.879732 -0.968990
v -1.026324 0.884664 -1.003403
v -1.026324 0.858052 -1.003403
v -1.024463 0.871358 -0.972283
v -0.915216 0.884664 -1.008286
v -0.915216 0.858052 -1.008286
v -0.913725 0.871378 -0.982430
v -0.895646 0.116435 -1.016915
v -0.936748 0.116435 -1.014457
v -0.913317 0.116435 -0.967536
v -0.862589 0.016436 -1.038013
v -0.969057 0.016436 -1.031646
v -0.911038 0.016436 -0.929430
v -0.781098 0.016436 -0.997876
v -0.819748 0.016436 -0.889879
v -1.056260 0.016436 -0.988006
v -1.005014 0.016436 -0.885385
v -0.867008 0.016436 -1.123380
v -0.977031 0.016436 -1.116800
v -0.765598 0.000802 -0.997609
v -0.808633 0.000802 -0.877357
v -1.071984 0.000802 -0.986620
v -1.014923 0.000802 -0.872354
v -0.861257 0.000802 -1.137356
v -0.983765 0.000802 -1.130029
vt 0.493468 0.481357
vt 0.494983 0.477459
vt 0.493826 0.478212
vt 0.495926 0.480552
vt 0.493668 0.479696
vt 0.497165 0.478892
vt 0.494996 0.480520
vt 0.496142 0.476927
vt 0.496351 0.479897
vt 0.493945 0.477077
vt 0.492909 0.479048
vt 0.496526 0.478376
vt 0.000000 0.000000
vt 1.000000 0.000000
vt 1.000000 1.000000
vt 0.000000 1.000000
vt 0.492666 0.481690
vt 0.491642 0.478910
vt 0.493134 0.475808
vt 0.496976 0.475419
vt 0.498660 0.478898
vt 0.496534 0.481985
vt 0.495209 0.478610
vt 0.495310 0.480322
vt 0.493906 0.480304
vt 0.493072 0.478790
vt 0.492731 0.477682
vt 0.496196 0.477110
vt 0.908779 0.100480
vt 0.933841 0.100564
vt 0.905275 0.070912
vt 0.930984 0.079704
vt 0.928452 0.081824
vt 0.906105 0.105812
vt 0.910045 0.078141
vt 0.937961 0.105812
vt 0.936111 0.065880
vt 0.934637 0.040174
vt 0.905275 0.070701
vt 0.913645 0.043587
vt 0.914718 0.043510
vt 0.940498 0.065704
vt 0.915157 0.063076
vt 0.940498 0.035539
vt 0.935615 0.004492
vt 0.909910 0.005967
vt 0.940437 0.035328
vt 0.913323 0.026959
vt 0.913246 0.025886
vt 0.935440 0.000106
vt 0.932813 0.025446
vt 0.905275 0.000106
vt 0.493737 0.469856
vt 0.501437 0.479027
vt 0.483157 0.490293
vt 0.403372 0.290752
vt 0.680900 0.485502
vt 0.375047 0.660525
vt 0.071428 0.611478
vt 0.136314 0.272099
vt 0.839960 0.744223
vt 0.538281 0.921589
vt 0.544923 0.075332
vt 0.836332 0.264407
vt 0.905064 0.222665
vt 0.905064 0.789485
vt 0.538952 0.999894
vt 0.000106 0.637512
vt 0.072657 0.234105
vt 0.550943 0.000106
vn 0.543718 0.838618 -0.032502
vn 0.790979 0.609973 -0.047304
vn 0.436445 0.609973 0.661336
vn 0.300027 0.838618 0.454604
vn -0.354503 0.609973 0.708670
vn -0.243690 0.838618 0.487136
vn -0.790979 0.609973 0.047304
vn -0.543718 0.838618 0.032502
vn -0.436445 0.609973 -0.661336
vn -0.300027 0.838618 -0.454604
vn 0.243690 0.838618 -0.487136
vn 0.354503 0.609973 -0.708670
vn 0.907010 0.418806 -0.043245
vn 0.394147 0.433668 -0.810266
vn -0.487930 0.433668 -0.757500
vn -0.905728 0.418806 0.065127
vn -0.436781 0.421796 0.794519
vn 0.528367 0.421796 0.736778
vn 0.728874 -0.403882 -0.552782
vn -0.789575 -0.403882 -0.461989
vn 0.800409 0.047029 -0.597552
vn -0.865932 0.047029 -0.497879
vn 0.051698 -0.499283 0.864864
vn 0.059572 0.058535 0.996490
vn -0.456252 0.648549 -0.609241
vn 0.702536 0.417920 -0.575976
vn 0.661961 -0.056148 -0.747432
vn -0.701172 0.162810 -0.694154
vn 0.663350 0.478103 0.575610
vn 0.663948 -0.158117 0.730871
vn -0.441450 0.715354 0.541612
vn -0.763078 0.081145 0.641192
vn 0.810633 -0.071932 -0.581072
vn -0.848598 0.071688 -0.524125
vn 0.109378 -0.009980 0.993927
vn -0.701172 0.162812 -0.694155
vn 0.663945 -0.158117 0.730873
vn -0.441450 0.715323 0.541612
vn -0.763081 0.081148 0.641188
vn 0.771844 0.095004 -0.628651
vn -0.875332 -0.092837 -0.474471
vn -0.005280 -0.013367 0.999878
vn 0.661964 -0.056147 -0.747430
vn -0.701172 0.162814 -0.694154
vn 0.663943 -0.158117 0.730875
vn -0.763080 0.081148 0.641190
vn 0.770837 -0.312357 -0.555162
vn -0.778375 0.285562 -0.559038
vn 0.165136 -0.040773 0.985412
vn 0.590533 -0.595721 -0.544359
vn -0.612781 0.548418 -0.568957
vn 0.141484 -0.078249 0.986816
vn 0.315683 -0.788415 -0.527940
vn -0.359386 0.727744 -0.584094
vn 0.105350 -0.103793 0.988983
vn 0.051820 -0.848659 -0.526322
vn -0.136021 0.810450 -0.569750
vn 0.068148 -0.061312 0.995788
vn 0.683401 0.334330 -0.648946
vn -0.813623 -0.357006 -0.458846
vn -0.047609 -0.049684 0.997620
vn 0.497147 0.590747 -0.635456
vn -0.612476 -0.633656 -0.472518
vn -0.016907 -0.084048 0.996307
vn 0.230903 0.750206 -0.619526
vn -0.326090 -0.808618 -0.489669
vn 0.020966 -0.106876 0.994018
vn 0.037416 0.820460 -0.570452
vn -0.086734 -0.846156 -0.525773
vn 0.054842 -0.042238 0.997589
vn -0.031495 0.846980 -0.530656
vn -0.031190 -0.847163 -0.530351
vn 0.059877 0.000275 0.998199
vn 0.780694 0.233802 -0.579485
vn -0.846400 0.225288 -0.482498
vn 0.051180 0.289254 0.955870
vn 0.183721 0.974609 -0.127934
vn -0.203101 0.972747 -0.111576
vn 0.009400 0.983703 0.179510
vn 0.262368 0.878842 0.398419
vn 0.471267 0.878231 -0.081149
vn -0.477035 0.877865 -0.041627
vn -0.228828 0.878475 0.419355
vn 0.223853 0.872707 -0.433851
vn -0.258400 0.873409 -0.412732
vn -0.366131 0.687948 -0.626638
vn -0.705672 0.708366 -0.015649
vn -0.368440 0.721837 0.585836
vn 0.410918 0.729775 0.546421
vn 0.708766 0.701445 -0.075005
vn 0.309478 0.694503 -0.649529
usemtl Candles_material
s 1
f 1/1/1 2/2/2 4/3/3 3/4/4
f 3/4/4 4/3/3 6/5/5 5/6/6
f 5/6/6 6/5/5 8/7/7 7/8/8
f 7/8/8 8/7/7 10/9/9 9/10/10
f 11/11/11 12/12/12 2/2/2 1/1/1
f 9/10/10 10/9/9 12/12/12 11/11/11
f 6/5/5 4/3/3 10/9/9 8/7/7
f 4/3/3 2/2/2 12/12/12 10/9/9
f 33/13/1 34/14/2 36/15/3 35/16/4
f 35/13/4 36/14/3 38/15/5 37/16/6
f 37/13/6 38/14/5 40/15/7 39/16/8
f 39/13/8 40/14/7 42/15/9 41/16/10
f 43/13/11 44/14/12 34/15/2 33/16/1
f 41/13/10 42/14/9 44/15/12 43/16/11
f 38/13/5 36/14/3 42/15/9 40/16/7
f 36/13/3 34/14/2 44/15/12 42/16/9
f 65/13/1 66/14/2 68/15/3 67/16/4
f 67/13/4 68/14/3 70/15/5 69/16/6
f 69/13/6 70/14/5 72/15/7 71/16/8
f 71/13/8 72/14/7 74/15/9 73/16/10
f 75/13/11 76/14/12 66/15/2 65/16/1
f 73/13/10 74/14/9 76/15/12 75/16/11
f 70/13/5 68/14/3 74/15/9 72/16/7
f 68/13/3 66/14/2 76/15/12 74/16/9
usemtl Candles_holder
f 11/11/11 1/1/1 13/17/13 18/18/14
f 9/10/10 11/11/11 18/18/14 17/19/15
f 7/8/8 9/10/10 17/19/15 16/20/16
f 5/6/6 7/8/8 16/20/16 15/21/17
f 3/4/4 5/6/6 15/21/17 14/22/18
f 1/1/1 3/4/4 14/22/18 13/17/13
f 17/19/15 18/18/14 24/23/19 23/24/20
f 23/24/20 24/23/19 19/25/21 20/26/22
f 24/23/19 21/27/23 22/28/24 19/25/21
f 21/27/23 23/24/20 20/26/22 22/28/24
f 18/18/14 13/17/13 24/23/19
f 16/20/16 17/19/15 23/24/20
f 15/21/17 16/20/16 23/24/20 21/27/23
f 14/22/18 15/21/17 21/27/23
f 13/17/13 14/22/18 21/27/23 24/23/19
f 29/29/25 30/30/26 26/31/27 25/32/28
f 30/30/26 31/33/29 27/34/30 26/31/27
f 31/33/29 32/35/31 28/36/32 27/34/30
f 32/35/31 29/29/25 25/32/28 28/36/32
f 32/35/31 31/33/29 30/30/26 29/29/25
f 43/13/11 33/14/1 45/15/13 50/16/14
f 41/13/10 43/14/11 50/15/14 49/16/15
f 39/13/8 41/14/10 49/15/15 48/16/16
f 37/13/6 39/14/8 48/15/16 47/16/17
f 35/13/4 37/14/6 47/15/17 46/16/18
f 33/13/1 35/14/4 46/15/18 45/16/13
f 49/13/15 50/14/14 56/15/19 55/16/20
f 55/13/20 56/14/19 51/15/33 52/16/34
f 56/13/19 53/14/23 54/15/35 51/16/33
f 53/13/23 55/14/20 52/15/34 54/16/35
f 50/13/14 45/14/13 56/15/19
f 48/13/16 49/14/15 55/15/20
f 47/13/17 48/14/16 55/15/20 53/16/23
f 46/13/18 47/14/17 53/15/23
f 45/13/13 46/14/18 53/15/23 56/16/19
f 61/37/25 62/38/26 58/39/27 57/40/36
f 62/38/26 63/41/29 59/42/37 58/39/27
f 63/41/29 64/43/38 60/44/39 59/42/37
f 64/43/38 61/37/25 57/40/36 60/44/39
f 64/43/38 63/41/29 62/38/26 61/37/25
f 75/13/11 65/14/1 77/15/13 82/16/14
f 73/13/10 75/14/11 82/15/14 81/16/15
f 71/13/8 73/14/10 81/15/15 80/16/16
f 69/13/6 71/14/8 80/15/16 79/16/17
f 67/13/4 69/14/6 79/15/17 78/16/18
f 65/13/1 67/14/4 78/15/18 77/16/13
f 81/13/15 82/14/14 88/15/19 87/16/20
f 87/13/20 88/14/19 83/15/40 84/16/41
f 88/13/19 85/14/23 86/15/42 83/16/40
f 85/13/23 87/14/20 84/15/41 86/16/42
f 82/13/14 77/14/13 88/15/19
f 80/13/16 81/14/15 87/15/20
f 79/13/17 80/14/16 87/15/20 85/16/23
f 78/13/18 79/14/17 85/15/23
f 77/13/13 78/14/18 85/15/23 88/16/19
f 93/45/25 94/46/26 90/47/43 89/48/44
f 94/46/26 95/49/29 91/50/45 90/47/43
f 95/49/29 96/51/38 92/52/46 91/50/45
f 96/51/38 93/45/25 89/48/44 92/52/46
f 96/51/38 95/49/29 94/46/26 93/45/25
f 52/13/34 51/14/33 97/15/47 98/16/48
f 51/13/33 54/14/35 99/15/49 97/16/47
f 54/13/35 52/14/34 98/15/48 99/16/49
f 98/13/48 97/14/47 100/15/50 101/16/51
f 97/13/47 99/14/49 102/15/52 100/16/50
f 99/13/49 98/14/48 101/15/51 102/16/52
f 101/13/51 100/14/50 103/15/53 104/16/54
f 100/13/50 102/14/52 105/15/55 103/16/53
f 102/13/52 101/14/51 104/15/54 105/16/55
f 104/13/54 103/14/53 106/15/56 107/16/57
f 103/13/53 105/14/55 108/15/58 106/16/56
f 105/13/55 104/14/54 107/15/57 108/16/58
f 84/13/41 83/14/40 109/15/59 110/16/60
f 83/13/40 86/14/42 111/15/61 109/16/59
f 86/13/42 84/14/41 110/15/60 111/16/61
f 110/13/60 109/14/59 112/15/62 113/16/63
f 109/13/59 111/14/61 114/15/64 112/16/62
f 111/13/61 110/14/60 113/15/63 114/16/64
f 113/13/63 112/14/62 115/15/65 116/16/66
f 112/13/62 114/14/64 117/15/67 115/16/65
f 114/13/64 113/14/63 116/15/66 117/16/67
f 116/13/66 115/14/65 118/15/68 119/16/69
f 115/13/65 117/14/67 120/15/70 118/16/68
f 117/13/67 116/14/66 119/15/69 120/16/70
f 119/13/69 118/14/68 121/15/71 122/16/72
f 118/13/68 120/14/70 123/15/73 121/16/71
f 120/13/70 119/14/69 122/15/72 123/16/73
f 20/26/22 19/25/21 124/53/74 125/54/75
f 19/25/21 22/28/24 126/55/76 124/53/74
f 22/28/24 20/26/22 125/54/75 126/55/76
f 125/54/75 124/53/74 127/56/77 128/57/78
f 124/53/74 126/55/76 129/58/79 127/56/77
f 126/55/76 125/54/75 128/57/78 129/58/79
f 127/56/77 129/58/79 131/59/80 130/60/81
f 129/58/79 128/57/78 132/61/82 133/62/83
f 128/57/78 127/56/77 134/63/84 135/64/85
f 127/56/77 130/60/81 134/63/84
f 129/58/79 133/62/83 131/59/80
f 128/57/78 135/64/85 132/61/82
f 132/61/82 135/64/85 141/65/86 138/66/87
f 131/59/80 133/62/83 139/67/88 137/68/89
f 134/63/84 130/60/81 136/69/90 140/70/91
f 135/64/85 134/63/84 140/70/91 141/65/86
f 133/62/83 132/61/82 138/66/87 139/67/88
f 130/60/81 131/59/80 137/68/89 136/69/90
f 107/13/57 106/14/56 122/15/72 121/16/71
f 106/13/56 108/14/58 123/15/73 122/16/72
f 108/13/58 107/14/57 121/15/71 123/16/73
