# Blender v2.66 (sub 1) OBJ File: ''
# www.blender.org
mtllib ../../content/candy.mtl
o Candy_Icosphere
v 0.000000 -0.050000 -0.000000
v 0.036180 -0.022361 0.026286
v -0.013819 -0.022361 0.042532
v -0.044721 -0.022361 -0.000000
v -0.013819 -0.022361 -0.042532
v 0.036180 -0.022361 -0.026286
v 0.013819 0.022361 0.042532
v -0.036180 0.022361 0.026286
v -0.036180 0.022361 -0.026286
v 0.013819 0.022361 -0.042532
v 0.044721 0.022361 -0.000000
v 0.000000 0.050000 -0.000000
v 0.021266 -0.042533 0.015451
v 0.013143 -0.026287 0.040451
v -0.008123 -0.042533 0.025000
v 0.021266 -0.042533 -0.015451
v 0.042532 -0.026287 -0.000000
v -0.034409 -0.026287 0.025000
v -0.026286 -0.042533 -0.000000
v -0.034409 -0.026287 -0.025000
v -0.008123 -0.042533 -0.025000
v 0.013143 -0.026287 -0.040451
v 0.047553 0.000000 -0.015451
v 0.047553 0.000000 0.015451
v 0.029389 0.000000 0.040451
v 0.000000 0.000000 0.050000
v -0.029389 0.000000 0.040451
v -0.047553 0.000000 0.015451
v -0.047553 0.000000 -0.015451
v -0.029389 0.000000 -0.040451
v 0.000000 0.000000 -0.050000
v 0.029389 0.000000 -0.040451
v 0.034409 0.026287 0.025000
v -0.013143 0.026287 0.040451
v -0.042532 0.026287 -0.000000
v -0.013143 0.026287 -0.040451
v 0.034409 0.026287 -0.025000
v 0.026286 0.042533 -0.000000
v 0.008123 0.042533 0.025000
v -0.021266 0.042533 0.015451
v -0.021266 0.042533 -0.015451
v 0.008123 0.042533 -0.025000
vt 0.500924 0.021177
vt 0.296444 0.109145
vt 0.555328 0.125545
vt 0.163583 0.297713
vt 0.087479 0.242569
vt 0.749997 0.097988
vt 0.604757 0.057261
vt 0.294667 0.066187
vt 0.051390 0.495081
vt 0.586923 0.312152
vt 0.364607 0.275113
vt 0.467485 0.495071
vt 0.920822 0.292907
vt 0.781786 0.271606
vt 0.911015 0.502685
vt 0.688844 0.256427
vt 0.876239 0.233207
vt 0.854921 0.510418
vt 0.131660 0.261945
vt 0.383409 0.209130
vt 0.196233 0.504742
vt 0.226162 0.493856
vt 0.715083 0.498218
vt 0.982310 0.507405
vt 0.537912 0.509525
vt 0.019702 0.498999
vt 0.354974 0.680303
vt 0.175241 0.727142
vt 0.405973 0.869964
vt 0.790167 0.693688
vt 0.579025 0.715151
vt 0.673344 0.883026
vt 0.891444 0.742461
vt 0.894874 0.752984
vt 0.716608 0.933191
vt 0.371289 0.761077
vt 0.672084 0.802736
vt 0.425174 0.952318
vt 0.062544 0.713486
vt 0.147519 0.781056
vt 0.240053 0.907770
vt 0.491555 0.978306
vn 0.102383 -0.943523 0.315090
vn 0.700224 -0.661699 0.268031
vn -0.268035 -0.943523 0.194736
vn -0.268035 -0.943523 -0.194736
vn 0.102383 -0.943523 -0.315090
vn 0.904989 -0.330384 0.268031
vn 0.024746 -0.330387 0.943521
vn -0.889697 -0.330385 0.315095
vn -0.574601 -0.330387 -0.748784
vn 0.534575 -0.330386 -0.777866
vn 0.802609 -0.125627 0.583127
vn -0.306570 -0.125629 0.943521
vn -0.992077 -0.125628 0.000000
vn -0.306570 -0.125629 -0.943521
vn 0.802609 -0.125626 -0.583127
vn 0.408947 0.661697 0.628426
vn -0.471300 0.661699 0.583122
vn -0.700223 0.661700 -0.268031
vn 0.038531 0.661698 -0.748780
vn 0.724042 0.661696 -0.194736
vn -0.038530 -0.661698 0.748780
vn 0.187596 -0.794657 0.577345
vn 0.471299 -0.661699 0.583122
vn 0.700224 -0.661700 -0.268031
vn 0.607060 -0.794656 0.000000
vn 0.331306 -0.943523 0.000000
vn -0.724042 -0.661696 0.194736
vn -0.491120 -0.794657 0.356820
vn -0.408947 -0.661698 0.628426
vn -0.408946 -0.661698 -0.628426
vn -0.491120 -0.794658 -0.356820
vn -0.724042 -0.661696 -0.194736
vn 0.471299 -0.661699 -0.583122
vn 0.187596 -0.794657 -0.577345
vn -0.038530 -0.661698 -0.748780
vn 0.992077 0.125628 -0.000000
vn 0.982246 -0.187599 0.000000
vn 0.904989 -0.330384 -0.268031
vn 0.306570 0.125629 0.943521
vn 0.303532 -0.187598 0.934171
vn 0.534576 -0.330386 0.777865
vn -0.802609 0.125627 0.583127
vn -0.794655 -0.187595 0.577348
vn -0.574602 -0.330387 0.748784
vn -0.802609 0.125626 -0.583127
vn -0.794655 -0.187594 -0.577349
vn -0.889697 -0.330385 -0.315095
vn 0.306570 0.125629 -0.943521
vn 0.303532 -0.187598 -0.934171
vn 0.024746 -0.330387 -0.943521
vn 0.574602 0.330387 0.748784
vn 0.794655 0.187595 0.577348
vn 0.889697 0.330385 0.315095
vn -0.534576 0.330386 0.777865
vn -0.303532 0.187597 0.934171
vn -0.024746 0.330387 0.943521
vn -0.904989 0.330384 -0.268031
vn -0.982246 0.187598 0.000000
vn -0.904989 0.330384 0.268031
vn -0.024746 0.330387 -0.943521
vn -0.303532 0.187597 -0.934171
vn -0.534576 0.330385 -0.777865
vn 0.889697 0.330385 -0.315095
vn 0.794655 0.187594 -0.577348
vn 0.574601 0.330387 -0.748784
vn 0.268035 0.943523 0.194736
vn 0.491120 0.794657 0.356820
vn 0.724042 0.661696 0.194736
vn -0.102383 0.943523 0.315090
vn -0.187596 0.794658 0.577345
vn 0.038531 0.661698 0.748780
vn -0.331306 0.943523 0.000000
vn -0.607060 0.794656 0.000000
vn -0.700223 0.661700 0.268032
vn -0.102383 0.943523 -0.315090
vn -0.187596 0.794658 -0.577345
vn -0.471299 0.661700 -0.583122
vn 0.268035 0.943523 -0.194736
vn 0.491120 0.794657 -0.356820
vn 0.408946 0.661698 -0.628426
usemtl Candy_material
s off
f 1/1/1 13/2/1 15/3/1
f 2/4/2 13/2/2 17/5/2
f 1/1/3 15/3/3 19/6/3
f 1/1/4 19/6/4 21/7/4
f 1/1/5 21/7/5 16/8/5
f 2/4/6 17/5/6 24/9/6
f 3/10/7 14/11/7 26/12/7
f 4/13/8 18/14/8 28/15/8
f 5/16/9 20/17/9 30/18/9
f 6/19/10 22/20/10 32/21/10
f 2/4/11 24/9/11 25/22/11
f 3/10/12 26/12/12 27/23/12
f 4/13/13 28/15/13 29/24/13
f 5/16/14 30/18/14 31/25/14
f 6/19/15 32/21/15 23/26/15
f 7/27/16 33/28/16 39/29/16
f 8/30/17 34/31/17 40/32/17
f 9/33/18 35/34/18 41/35/18
f 10/36/19 36/37/19 42/38/19
f 11/39/20 37/40/20 38/41/20
f 15/3/21 14/11/21 3/10/21
f 15/3/22 13/2/22 14/11/22
f 13/2/23 2/4/23 14/11/23
f 17/5/24 16/8/24 6/19/24
f 17/5/25 13/2/25 16/8/25
f 13/2/26 1/1/26 16/8/26
f 19/6/27 18/14/27 4/13/27
f 19/6/28 15/3/28 18/14/28
f 15/3/29 3/10/29 18/14/29
f 21/7/30 20/17/30 5/16/30
f 21/7/31 19/6/31 20/17/31
f 19/6/32 4/13/32 20/17/32
f 16/8/33 22/20/33 6/19/33
f 16/8/34 21/7/34 22/20/34
f 21/7/35 5/16/35 22/20/35
f 24/9/36 23/26/36 11/39/36
f 24/9/37 17/5/37 23/26/37
f 17/5/38 6/19/38 23/26/38
f 26/12/39 25/22/39 7/27/39
f 26/12/40 14/11/40 25/22/40
f 14/11/41 2/4/41 25/22/41
f 28/15/42 27/23/42 8/30/42
f 28/15/43 18/14/43 27/23/43
f 18/14/44 3/10/44 27/23/44
f 30/18/45 29/24/45 9/33/45
f 30/18/46 20/17/46 29/24/46
f 20/17/47 4/13/47 29/24/47
f 32/21/48 31/25/48 10/36/48
f 32/21/49 22/20/49 31/25/49
f 22/20/50 5/16/50 31/25/50
f 25/22/51 33/28/51 7/27/51
f 25/22/52 24/9/52 33/28/52
f 24/9/53 11/39/53 33/28/53
f 27/23/54 34/31/54 8/30/54
f 27/23/55 26/12/55 34/31/55
f 26/12/56 7/27/56 34/31/56
f 29/24/57 35/34/57 9/33/57
f 29/24/58 28/15/58 35/34/58
f 28/15/59 8/30/59 35/34/59
f 31/25/60 36/37/60 10/36/60
f 31/25/61 30/18/61 36/37/61
f 30/18/62 9/33/62 36/37/62
f 23/26/63 37/40/63 11/39/63
f 23/26/64 32/21/64 37/40/64
f 32/21/65 10/36/65 37/40/65
f 39/29/66 38/41/66 12/42/66
f 39/29/67 33/28/67 38/41/67
f 33/28/68 11/39/68 38/41/68
f 40/32/69 39/29/69 12/42/69
f 40/32/70 34/31/70 39/29/70
f 34/31/71 7/27/71 39/29/71
f 41/35/72 40/32/72 12/42/72
f 41/35/73 35/34/73 40/32/73
f 35/34/74 8/30/74 40/32/74
f 42/38/75 41/35/75 12/42/75
f 42/38/76 36/37/76 41/35/76
f 36/37/77 9/33/77 41/35/77
f 38/41/78 42/38/78 12/42/78
f 38/41/79 37/40/79 42/38/79
f 37/40/80 10/36/80 42/38/80
