# Blender v2.69 (sub 0) OBJ File: 'cherry.blend'
# www.blender.org
mtllib ..\..\content\cherry.mtl
o Cherry_Cherry_mesh
v -0.395513 0.504712 -0.000000
v -0.712690 0.499393 -0.000000
v -0.888709 0.222521 -0.000000
v -0.888709 -0.222521 -0.000000
v -0.703180 -0.544651 -0.000000
v -0.369019 -0.778389 0.101144
v -0.375754 0.573408 -0.216942
v -0.677086 0.499393 -0.390916
v -0.844312 0.222521 -0.487464
v -0.844312 -0.222521 -0.487464
v -0.668051 -0.544651 -0.385700
v -0.216942 0.573408 -0.375754
v -0.390916 0.499393 -0.677086
v -0.487464 0.222521 -0.844312
v -0.487464 -0.222521 -0.844312
v -0.385700 -0.544651 -0.668051
v -0.296348 -0.778389 -0.296348
v -0.000000 0.573408 -0.433884
v -0.000000 0.499393 -0.781831
v -0.000000 0.222521 -0.974928
v -0.000000 -0.222521 -0.974928
v -0.000000 -0.544651 -0.771399
v 0.098834 -0.831430 0.028996
v 0.216942 0.573408 -0.375754
v 0.390916 0.499393 -0.677086
v 0.487464 0.222521 -0.844312
v 0.487464 -0.222521 -0.844312
v 0.385699 -0.544651 -0.668051
v 0.108471 -0.778389 -0.404819
v 0.342524 0.504712 -0.202289
v 0.617207 0.499393 -0.364512
v 0.769644 0.222521 -0.454539
v 0.769644 -0.222521 -0.454539
v 0.608972 -0.544651 -0.359648
v 0.369018 -0.778389 -0.101144
v 0.395513 0.504712 -0.000000
v 0.712689 0.499393 0.000000
v 0.888709 0.222521 0.000000
v 0.888709 -0.222521 0.000000
v 0.703180 -0.544651 0.000000
v 0.375754 0.573408 0.216942
v 0.677086 0.499393 0.390916
v 0.844312 0.222521 0.487464
v 0.844312 -0.222521 0.487464
v 0.668051 -0.544651 0.385700
v 0.216942 0.573408 0.375754
v 0.390915 0.499393 0.677086
v 0.487464 0.222521 0.844312
v 0.487464 -0.222521 0.844312
v 0.385699 -0.544651 0.668051
v 0.296348 -0.778389 0.296348
v -0.000000 0.573408 0.433884
v -0.000000 0.499393 0.781831
v -0.000000 0.222521 0.974928
v -0.000000 -0.222521 0.974928
v -0.000000 -0.544651 0.771399
v -0.027908 -0.831430 -0.104152
v -0.216942 0.573408 0.375754
v -0.390916 0.499393 0.677086
v -0.487464 0.222521 0.844312
v -0.487464 -0.222521 0.844312
v -0.385700 -0.544651 0.668051
v -0.108471 -0.778389 0.404819
v -0.342524 0.504712 0.202289
v -0.617207 0.499393 0.364512
v -0.769645 0.222521 0.454539
v -0.769645 -0.222521 0.454539
v -0.608972 -0.544651 0.359648
v -0.070927 -0.831430 0.075156
v 0.114352 0.404698 0.077063
v -0.043692 0.404698 0.120382
v -0.096681 0.404698 -0.081907
v 0.061363 0.404698 -0.125225
v 0.072815 0.484070 0.045774
v -0.023015 0.484070 0.072040
v -0.055144 0.484070 -0.050617
v 0.040685 0.484070 -0.076883
v 0.012660 0.985469 -0.052426
v -0.017965 0.980937 -0.042432
v -0.030074 0.978716 -0.082077
v 0.000550 0.983248 -0.092071
v -0.050975 1.290247 -0.099944
v -0.091799 1.281598 -0.102556
v -0.099092 1.263947 -0.139754
v -0.061836 1.280707 -0.150816
v -0.081769 1.441455 -0.114269
v -0.159436 1.421051 -0.118002
v -0.182453 1.392202 -0.205266
v -0.109565 1.409668 -0.212239
vt 0.089451 0.499670
vt 0.179038 0.455701
vt 0.164876 0.526104
vt 0.686850 0.190786
vt 0.611519 0.138913
vt 0.673749 0.044772
vt 0.736089 0.116299
vt 0.516643 0.094141
vt 0.578872 0.000000
vt 0.292208 0.391069
vt 0.279686 0.342439
vt 0.371553 0.308630
vt 0.406765 0.348909
vt 0.259191 0.266266
vt 0.309886 0.245908
vt 0.089451 0.602688
vt 0.165037 0.569344
vt 0.686546 0.666847
vt 0.602795 0.703593
vt 0.595998 0.596655
vt 0.681168 0.582234
vt 0.492442 0.703208
vt 0.485645 0.596270
vt 0.427468 0.667840
vt 0.422017 0.582083
vt 0.337891 0.197562
vt 0.422017 0.221513
vt 0.180125 0.643787
vt 0.595998 0.470849
vt 0.681168 0.482692
vt 0.485645 0.470464
vt 0.422017 0.481194
vt 0.337891 0.141787
vt 0.422017 0.121010
vt 0.269711 0.496800
vt 0.269711 0.599818
vt 0.205120 0.547085
vt 0.602795 0.359885
vt 0.686546 0.394892
vt 0.492442 0.359499
vt 0.427468 0.392207
vt 0.309886 0.093528
vt 0.371553 0.034050
vt 0.320483 0.691507
vt 0.232158 0.726304
vt 0.695017 0.395059
vt 0.763837 0.359499
vt 0.753132 0.471870
vt 0.686546 0.483971
vt 0.871314 0.359669
vt 0.860608 0.472040
vt 0.946691 0.393628
vt 0.938106 0.483742
vt 0.260283 0.076226
vt 0.281653 0.000000
vt 0.753296 0.589057
vt 0.686676 0.576694
vt 0.860773 0.589227
vt 0.938238 0.577719
vt 0.208134 0.076599
vt 0.187685 0.000672
vt 0.763837 0.703379
vt 0.695017 0.667150
vt 0.871314 0.703549
vt 0.946691 0.669398
vt 0.156864 0.093768
vt 0.095817 0.034482
vt 1.000000 0.329672
vt 0.916891 0.357117
vt 0.911533 0.235822
vt 0.995761 0.233699
vt 0.806292 0.359499
vt 0.800934 0.238204
vt 0.740385 0.336579
vt 0.736089 0.239308
vt 0.128859 0.142114
vt 0.045353 0.121599
vt 0.911533 0.114016
vt 0.995761 0.137322
vt 0.800934 0.116398
vt 0.736089 0.141627
vt 0.128859 0.197889
vt 0.045353 0.222102
vt 0.916891 0.024336
vt 1.000000 0.066363
vt 0.806292 0.026718
vt 0.000000 0.241011
vt 0.095817 0.309061
vt 0.062927 0.349447
vt 0.156864 0.246148
vt 0.615142 0.359499
vt 0.520891 0.352139
vt 0.559250 0.243532
vt 0.645493 0.273565
vt 0.426014 0.307367
vt 0.464374 0.198760
vt 0.185717 0.343111
vt 0.175031 0.391907
vt 0.207043 0.266638
vt 0.208138 0.151317
vt 0.207904 0.192012
vt 0.260286 0.150944
vt 0.422017 0.168654
vt 0.463933 0.084756
vt 0.230226 0.391907
vt 0.320483 0.423349
vt 0.370062 0.507563
vt 0.370062 0.605715
vt 0.139837 0.727261
vt 0.049579 0.695819
vt 0.000000 0.611605
vt 0.000000 0.513453
vt 0.049579 0.427661
vt 0.707663 0.358750
vt 0.736089 0.269863
vt 0.260052 0.191639
vt 0.745839 0.726183
vt 0.727135 0.732634
vt 0.727587 0.707089
vt 0.745839 0.703549
vt 0.370415 0.670006
vt 0.420948 0.657543
vt 0.415647 0.675404
vt 0.385006 0.682961
vt 0.419624 0.792179
vt 0.409486 0.794281
vt 0.370062 0.646116
vt 0.384776 0.627713
vt 0.415630 0.634642
vt 0.727135 0.958606
vt 0.686546 0.954048
vt 0.696957 0.936528
vt 0.721568 0.939292
vt 0.674655 0.703593
vt 0.674655 0.743204
vt 0.655803 0.738457
vt 0.655803 0.714439
vt 0.419824 0.869836
vt 0.409584 0.867877
vt 0.405872 0.506663
vt 0.416052 0.508506
vt 0.719045 0.814943
vt 0.727135 0.814679
vt 0.533542 0.740107
vt 0.534636 0.732211
vt 0.420948 0.908582
vt 0.397364 0.907409
vt 0.404643 0.429857
vt 0.417826 0.430304
vt 0.714050 0.741210
vt 0.724149 0.738139
vt 0.459129 0.733741
vt 0.461560 0.725161
vt 0.394490 0.393701
vt 0.420948 0.391907
vt 0.701567 0.705495
vt 0.720015 0.703549
vt 0.422017 0.729613
vt 0.427599 0.713118
vn -0.118259 -0.923063 0.365947
vn -0.394696 -0.912931 0.103519
vn -0.074435 -0.994690 0.070833
vn -0.743736 -0.666585 0.049562
vn -0.964843 -0.250862 0.078097
vn -0.872250 -0.262551 -0.412519
vn -0.666372 -0.681143 -0.303201
vn -0.959471 0.270821 0.077578
vn -0.867214 0.282113 -0.410260
vn -0.553026 0.830012 0.072146
vn -0.541642 0.808496 -0.229987
vn 0.111484 0.990936 0.074831
vn 0.052156 0.991180 0.121799
vn 0.286660 -0.922971 0.256661
vn 0.100070 -0.994690 0.023927
vn -0.481887 -0.266488 -0.834681
vn -0.355083 -0.689383 -0.631367
vn -0.479019 0.286538 -0.829707
vn -0.296182 0.805628 -0.513016
vn 0.039094 0.996460 0.074129
vn 0.393262 -0.912961 -0.108615
vn 0.000000 -0.266488 -0.963805
vn -0.008148 -0.689383 -0.724326
vn 0.000000 0.286538 -0.958037
vn 0.000000 0.805628 -0.592395
vn 0.005280 0.996246 0.086276
vn -0.289621 -0.922666 -0.254433
vn 0.121952 -0.922758 -0.365490
vn -0.024659 -0.995514 -0.091006
vn 0.544481 -0.262856 -0.796503
vn 0.421400 -0.681906 -0.597827
vn 0.541246 0.282449 -0.791986
vn 0.350688 0.809320 -0.471114
vn 0.013306 0.990265 0.138524
vn 0.668203 -0.667501 -0.328410
vn 0.874172 -0.251442 -0.415418
vn 0.869228 0.271371 -0.413221
vn 0.516434 0.829066 -0.214240
vn -0.064180 0.990143 0.124302
vn 0.964843 -0.250862 -0.078097
vn 0.743736 -0.666585 -0.049562
vn 0.959471 0.270821 -0.077578
vn 0.553026 0.830012 -0.072146
vn -0.119785 0.990020 -0.074007
vn 0.872250 -0.262551 0.412519
vn 0.666372 -0.681143 0.303201
vn 0.867214 0.282113 0.410260
vn 0.541642 0.808496 0.229987
vn -0.057009 0.990600 -0.124149
vn 0.481887 -0.266488 0.834681
vn 0.355083 -0.689383 0.631367
vn 0.479019 0.286538 0.829707
vn 0.296182 0.805628 0.513016
vn -0.038911 0.996277 -0.076815
vn 0.000000 -0.266488 0.963805
vn 0.008148 -0.689383 0.724326
vn 0.000000 0.286538 0.958037
vn 0.000000 0.805628 0.592395
vn -0.003754 0.996460 -0.083956
vn -0.544481 -0.262856 0.796503
vn -0.421400 -0.681906 0.597827
vn -0.541246 0.282449 0.791986
vn -0.350688 0.809320 0.471114
vn -0.016388 0.990844 -0.133946
vn -0.874172 -0.251442 0.415418
vn -0.668203 -0.667501 0.328410
vn -0.869228 0.271371 0.413221
vn -0.516434 0.829066 0.214240
vn 0.056673 0.991028 -0.120914
vn 0.018067 0.998291 -0.055513
vn -0.050905 0.997864 -0.040468
vn 0.041200 0.998169 0.043825
vn -0.028077 0.997925 0.057527
vn -0.241610 0.939872 -0.241381
vn -0.458815 0.416089 0.785058
vn -0.837764 0.331950 -0.433485
vn -0.500259 0.118870 0.857662
vn -0.859157 -0.142460 -0.491440
vn 0.501633 0.335734 -0.797235
vn 0.793817 0.412244 0.447066
vn -0.549821 -0.092898 0.830073
vn -0.768639 -0.456191 -0.448347
vn 0.539415 -0.016449 -0.841853
vn 0.836360 0.225501 0.499588
vn -0.579285 -0.192343 0.792107
vn -0.664107 -0.626735 -0.407633
vn 0.609210 -0.107089 -0.785699
vn 0.780297 0.248115 0.574053
vn 0.548988 -0.208077 -0.809516
vn 0.725160 0.224427 0.650980
usemtl Cherry_red
s 1
f 63/1/1 6/2/2 69/3/3
f 5/4/4 4/5/5 10/6/6 11/7/7
f 4/5/5 3/8/8 9/9/9 10/6/6
f 3/10/8 2/11/10 8/12/11 9/13/9
f 2/11/10 1/14/12 7/15/13 8/12/11
f 51/16/14 63/1/1 69/3/3 23/17/15
f 11/18/7 10/19/6 15/20/16 16/21/17
f 10/19/6 9/22/9 14/23/18 15/20/16
f 9/22/9 8/24/11 13/25/19 14/23/18
f 8/12/11 7/15/13 12/26/20 13/27/19
f 35/28/21 51/16/14 23/17/15
f 16/21/17 15/20/16 21/29/22 22/30/23
f 15/20/16 14/23/18 20/31/24 21/29/22
f 14/23/18 13/25/19 19/32/25 20/31/24
f 13/27/19 12/26/20 18/33/26 19/34/25
f 17/35/27 29/36/28 57/37/29
f 22/30/23 21/29/22 27/38/30 28/39/31
f 21/29/22 20/31/24 26/40/32 27/38/30
f 20/31/24 19/32/25 25/41/33 26/40/32
f 19/34/25 18/33/26 24/42/34 25/43/33
f 29/36/28 28/44/31 34/45/35 35/28/21
f 28/46/31 27/47/30 33/48/36 34/49/35
f 27/47/30 26/50/32 32/51/37 33/48/36
f 26/50/32 25/52/33 31/53/38 32/51/37
f 25/43/33 24/42/34 30/54/39 31/55/38
f 29/36/28 35/28/21 23/17/15 57/37/29
f 34/49/35 33/48/36 39/56/40 40/57/41
f 33/48/36 32/51/37 38/58/42 39/56/40
f 32/51/37 31/53/38 37/59/43 38/58/42
f 31/55/38 30/54/39 36/60/44 37/61/43
f 40/57/41 39/56/40 44/62/45 45/63/46
f 39/56/40 38/58/42 43/64/47 44/62/45
f 38/58/42 37/59/43 42/65/48 43/64/47
f 37/61/43 36/60/44 41/66/49 42/67/48
f 6/2/2 17/35/27 57/37/29 69/3/3
f 45/68/46 44/69/45 49/70/50 50/71/51
f 44/69/45 43/72/47 48/73/52 49/70/50
f 43/72/47 42/74/48 47/75/53 48/73/52
f 42/67/48 41/66/49 46/76/54 47/77/53
f 50/71/51 49/70/50 55/78/55 56/79/56
f 49/70/50 48/73/52 54/80/57 55/78/55
f 48/73/52 47/75/53 53/81/58 54/80/57
f 47/77/53 46/76/54 52/82/59 53/83/58
f 56/79/56 55/78/55 61/84/60 62/85/61
f 55/78/55 54/80/57 60/86/62 61/84/60
f 54/87/57 53/83/58 59/88/63 60/89/62
f 53/83/58 52/82/59 58/90/64 59/88/63
f 62/91/61 61/92/60 67/93/65 68/94/66
f 61/92/60 60/95/62 66/96/67 67/93/65
f 60/89/62 59/88/63 65/97/68 66/98/67
f 59/88/63 58/90/64 64/99/69 65/97/68
f 46/76/54 70/100/70 71/101/71 52/82/59
f 58/90/64 71/101/71 64/99/69
f 24/42/34 73/102/72 30/54/39
f 57/37/29 23/17/15 69/3/3
f 68/94/66 67/93/65 4/5/5 5/4/4
f 67/93/65 66/96/67 3/8/8 4/5/5
f 66/96/67 65/103/68 2/104/10 3/8/8
f 65/97/68 64/99/69 1/14/12 2/11/10
f 24/42/34 18/33/26 73/102/72
f 6/2/2 5/105/4 11/106/7 17/35/27
f 17/35/27 11/106/7 16/107/17
f 17/35/27 16/107/17 22/108/23 29/36/28
f 29/36/28 22/108/23 28/44/31
f 35/28/21 34/45/35 40/109/41
f 35/28/21 40/109/41 45/110/46 51/16/14
f 51/16/14 45/110/46 50/111/51
f 51/16/14 50/111/51 56/112/56 63/1/1
f 63/1/1 56/112/56 62/113/61
f 63/114/1 62/91/61 68/94/66 6/115/2
f 6/115/2 68/94/66 5/4/4
f 36/60/44 30/54/39 73/102/72 70/100/70
f 64/99/69 71/101/71 72/116/73 1/14/12
f 7/15/13 72/116/73 12/26/20
f 1/14/12 72/116/73 7/15/13
f 12/26/20 72/116/73 73/102/72 18/33/26
f 36/60/44 70/100/70 41/66/49
f 41/66/49 70/100/70 46/76/54
f 58/90/64 52/82/59 71/101/71
usemtl Cherry_rest
s off
f 87/117/74 86/118/74 89/119/74 88/120/74
s 1
f 72/121/73 71/122/71 75/123/75 76/124/76
f 76/124/76 75/123/75 79/125/77 80/126/78
f 70/122/70 73/127/72 77/128/79 74/129/80
f 73/130/72 72/131/73 76/132/76 77/133/79
f 71/134/71 70/135/70 74/136/80 75/137/75
f 80/126/78 79/125/77 83/138/81 84/139/82
f 74/129/80 77/128/79 81/140/83 78/141/84
f 77/133/79 76/132/76 80/142/78 81/143/83
f 75/137/75 74/136/80 78/144/84 79/145/77
f 84/139/82 83/138/81 87/146/85 88/147/86
f 78/141/84 81/140/83 85/148/87 82/149/88
f 81/143/83 80/142/78 84/150/82 85/151/87
f 79/145/77 78/144/84 82/152/88 83/153/81
f 82/149/88 85/148/87 89/154/89 86/155/90
f 85/151/87 84/150/82 88/156/86 89/157/89
f 83/153/81 82/152/88 86/158/90 87/159/85
