# Blender v2.69 (sub 0) OBJ File: 'mushrooms.blend'
# www.blender.org
mtllib ..\..\content\mushrooms.mtl
o Mushrooms_Mushrooms_mesh
v 0.106322 0.498290 0.051253
v 0.106322 0.498290 -0.068747
v 0.346216 0.498290 -0.068747
v 0.346216 0.498290 0.051253
v 0.142129 0.618290 0.051253
v 0.148494 0.618290 -0.045873
v 0.346216 0.618290 -0.068747
v 0.346216 0.618290 0.051253
v 0.455481 0.505152 -0.049169
v 0.447446 0.505397 0.025758
v 0.475493 0.574660 -0.047685
v 0.469871 0.574905 0.017816
v 0.530307 0.375407 0.010329
v 0.527938 0.381745 0.044901
v 0.546559 0.363993 0.007492
v 0.544191 0.370331 0.042064
v 0.497660 0.322240 0.043989
v 0.497660 0.328191 0.058033
v 0.497660 0.299793 0.043290
v 0.497660 0.300467 0.057333
v 0.106322 0.564668 -0.104028
v 0.346216 0.561770 -0.104028
v 0.346216 0.560593 0.076241
v 0.106322 0.558678 0.076241
v -0.103781 0.498488 -0.004461
v -0.088609 0.502368 -0.057208
v -0.087068 0.542030 -0.070722
v -0.109487 0.531286 0.008263
v 0.072595 0.616356 -0.095974
v 0.070069 0.610526 0.065322
v -0.094657 0.580509 -0.052733
v -0.107909 0.572110 -0.005620
v 0.002028 0.498290 0.037188
v 0.002028 0.548964 0.056636
v 0.002028 0.498290 -0.056204
v 0.002028 0.554955 -0.083662
v 0.002028 0.607571 0.028421
v 0.002028 0.613562 -0.055447
v -0.139045 0.497946 -0.049517
v -0.136062 0.500491 -0.086771
v -0.155513 0.517975 -0.098208
v -0.157400 0.512016 -0.042181
v -0.177339 0.534433 -0.087451
v -0.177424 0.530013 -0.053935
v -0.173927 0.502585 -0.098208
v -0.171266 0.496930 -0.042181
v -0.201125 0.499843 -0.087451
v -0.198185 0.496540 -0.053935
v 0.074477 0.900196 0.015480
v 0.082380 0.906414 -0.046993
v 0.257204 0.900110 -0.337619
v -0.271792 0.848020 -0.205784
v 0.025743 0.899478 -0.006430
v 0.028918 0.907599 -0.059836
v 0.316997 0.601848 -0.030662
v -0.142770 0.882058 0.325370
v 0.371280 0.581877 -0.058927
v 0.386226 0.934147 0.193535
v 0.371323 0.592804 -0.022456
v -0.030713 0.867887 -0.368111
v 0.145147 0.914280 0.355862
v 0.196643 0.999525 -0.259267
v 0.417732 0.926583 -0.095972
v -0.303298 0.855585 0.083723
v -0.201176 0.960353 -0.160123
v -0.104147 0.985949 0.239319
v 0.293671 1.025122 0.140175
v -0.019878 0.975293 -0.282198
v 0.112373 1.010182 0.262249
v 0.317365 1.019433 -0.077542
v -0.224869 0.966041 0.057593
v 0.128786 1.064108 -0.079666
v -0.050159 1.049893 0.054851
v 0.105869 1.067578 0.077247
v -0.027242 1.046424 -0.102063
v 0.178740 0.498290 0.146503
v 0.273798 0.498290 0.146503
v 0.268468 0.567444 0.167892
v 0.176789 0.569855 0.175225
v 0.168682 0.501280 0.190033
v 0.178329 0.498290 0.262899
v 0.157853 0.530226 0.277797
v 0.147476 0.542001 0.217702
v 0.148852 0.503769 0.281404
v 0.136538 0.502824 0.220530
v 0.382637 0.498513 -0.106909
v 0.498323 0.499938 0.037773
v 0.517069 0.497754 -0.023082
v 0.532125 0.531176 0.023527
v 0.539091 0.524931 -0.011562
v -0.061745 0.502008 -0.114299
v -0.024836 0.502008 -0.116715
v -0.074482 0.502008 -0.160617
v -0.058745 0.502008 -0.170585
v -0.125633 0.502008 -0.194409
v -0.106221 0.502008 -0.201995
v -0.121361 0.502008 -0.226499
v -0.111353 0.502008 -0.222067
v -0.106799 0.502008 -0.251374
v 0.141246 0.502050 0.172754
v 0.108718 0.502050 0.203831
v 0.085282 0.502050 0.163146
v 0.083440 0.502050 0.189607
v 0.040749 0.502050 0.161486
v 0.032775 0.502050 0.174365
v -0.008390 0.502050 0.146439
v 0.370732 0.673404 -0.169719
v 0.349348 0.717836 0.001712
v 0.433273 0.664368 -0.098393
v 0.310918 0.699676 -0.154431
v 0.409162 0.691564 -0.013576
v 0.373858 0.700647 -0.144145
v 0.286807 0.726871 -0.069614
v 0.317848 0.736330 -0.077337
v 0.359587 0.730300 -0.029736
v 0.333939 0.718180 -0.133942
v 0.399505 0.712767 -0.039939
v 0.415596 0.694617 -0.096544
v 0.373606 0.730834 -0.091438
v 0.315533 0.595174 -0.062833
v 0.375055 0.698057 -0.066762
v 0.377119 0.692855 -0.090872
v 0.356128 0.700817 -0.075192
v 0.356847 0.697773 -0.096126
vt 0.513357 0.123792
vt 0.509294 0.184371
vt 0.385872 0.146025
vt 0.387481 0.108073
vt 0.446811 0.438501
vt 0.629920 0.621720
vt 0.583320 0.683305
vt 0.381084 0.491105
vt 0.748620 0.503778
vt 0.610198 0.324967
vt 0.632503 0.229183
vt 0.810677 0.482215
vt 0.667477 0.570990
vt 0.540811 0.414025
vt 0.813222 0.665882
vt 0.795752 0.673844
vt 0.805387 0.659362
vt 0.802810 0.659752
vt 0.880067 0.512967
vt 0.843520 0.623832
vt 0.787389 0.611673
vt 0.748348 0.643454
vt 0.741367 0.703600
vt 0.802932 0.659943
vt 0.802691 0.660505
vt 0.800562 0.651587
vt 0.800946 0.660766
vt 0.783998 0.664375
vt 0.804242 0.660018
vt 0.802894 0.659832
vt 0.802891 0.660150
vt 0.799481 0.253944
vt 0.837351 0.349845
vt 0.369456 0.353459
vt 0.307245 0.389484
vt 0.259181 0.290202
vt 0.305454 0.264789
vt 0.348425 0.232816
vt 0.427354 0.312622
vt 0.560706 0.262571
vt 0.485041 0.248576
vt 0.633072 0.144974
vt 0.457983 0.381042
vt 0.375307 0.188593
vt 0.279224 0.145162
vt 0.303270 0.117816
vt 0.241436 0.198991
vt 0.255145 0.173197
vt 0.320928 0.091303
vt 0.230530 0.228817
vt 0.216966 0.142763
vt 0.245793 0.111336
vt 0.281397 0.102690
vt 0.218174 0.182295
vt 0.505698 0.336946
vt 0.505792 0.336640
vt 0.505564 0.336737
vt 0.505964 0.336798
vt 0.851178 0.212601
vt 0.897678 0.219229
vt 0.770629 0.167924
vt 0.901060 0.383611
vt 0.816639 0.172003
vt 0.928686 0.238431
vt 0.864425 0.174115
vt 0.915902 0.203120
vt 0.641922 0.696505
vt 0.226650 0.391170
vt 0.210272 0.349293
vt 0.149858 0.381626
vt 0.152713 0.359161
vt 0.090792 0.345563
vt 0.089130 0.320280
vt 0.066048 0.350266
vt 0.056007 0.341535
vt 0.826793 0.138518
vt 0.875274 0.140823
vt 0.865583 0.091103
vt 0.885803 0.111355
vt 0.902685 0.064247
vt 0.918291 0.069098
vt 0.934522 0.019352
vt 0.035632 0.370045
vt 0.497970 0.643551
vt 0.351763 0.514667
vt 0.319635 0.599765
vt 0.417006 0.680101
vt 0.027876 0.855743
vt 0.174083 0.984626
vt 0.206210 0.899529
vt 0.108839 0.819193
vt 0.112947 0.692943
vt 0.027876 0.660776
vt 0.369015 0.984565
vt 0.497969 0.838518
vt 0.412899 0.806351
vt 0.332492 0.903597
vt 0.156830 0.514729
vt 0.193354 0.595697
vt 0.324129 0.746220
vt 0.266313 0.810522
vt 0.259533 0.688772
vt 0.201717 0.753074
vt 0.785383 0.723424
vt 0.878151 0.746973
vt 0.919597 0.833244
vt 0.699111 0.764870
vt 0.896048 0.926013
vt 0.675563 0.857638
vt 0.809776 0.967458
vt 0.717008 0.943910
vn -0.238741 -0.365259 0.899772
vn -0.308573 -0.033998 0.950560
vn -0.529435 -0.095126 0.842952
vn -0.465935 -0.470356 0.749446
vn 0.006867 0.017060 -0.999817
vn 0.093234 0.116886 -0.988739
vn -0.315492 -0.455934 -0.832219
vn -0.061845 -0.464833 -0.883236
vn 0.212073 0.787072 0.579211
vn 0.257942 0.571612 0.778893
vn -0.327036 0.160558 0.931242
vn 0.426160 0.185980 0.885311
vn 0.187445 0.843776 -0.502853
vn 0.458876 0.699911 -0.547288
vn -0.254560 0.120381 0.959535
vn 0.046745 -0.171898 -0.984005
vn -0.579791 -0.078188 -0.810968
vn -0.524216 0.200659 0.827570
vn 0.501005 -0.297691 0.812634
vn 0.203748 0.112604 0.972526
vn 0.426435 0.726463 0.538865
vn 0.533769 0.626179 -0.568255
vn 0.431323 0.118965 -0.894320
vn -0.895810 0.076876 -0.437696
vn -0.625172 0.285653 0.726310
vn 0.653768 0.478286 0.586352
vn 0.794366 -0.127934 0.593768
vn 0.838282 0.312845 -0.446516
vn 0.706992 -0.326609 -0.627247
vn -0.205817 -0.920377 -0.332438
vn -0.247047 -0.683248 0.687094
vn -0.512101 0.846126 0.147618
vn 0.534684 0.695975 0.479263
vn -0.185369 -0.057222 -0.980987
vn -0.075994 -0.051906 -0.995756
vn 0.239091 0.070646 -0.968424
vn 0.080874 0.105014 -0.991150
vn -0.308145 0.847041 -0.433027
vn -0.572405 0.456130 -0.681356
vn -0.212561 0.211768 0.953887
vn -0.613208 0.414869 0.672170
vn -0.442709 -0.339347 0.829972
vn 0.056642 0.220649 -0.973693
vn -0.543992 0.664327 0.512528
vn -0.688314 0.579547 0.436232
vn -0.410382 -0.083560 0.908048
vn 0.128758 0.112308 -0.985290
vn -0.506363 0.680807 -0.529221
vn -0.388918 -0.503721 0.771368
vn 0.428335 -0.243959 -0.870065
vn -0.778611 0.536589 -0.325326
vn -0.727674 0.485935 0.484104
vn -0.212666 0.138649 0.967238
vn -0.191850 0.138061 -0.971665
vn -0.793381 0.162898 0.586525
vn -0.732099 0.109841 -0.672284
vn 0.609500 0.246647 -0.753442
vn 0.599783 0.276262 0.750959
vn -0.672914 0.493185 0.551322
vn 0.667145 0.283964 0.688682
vn 0.631818 0.298021 0.715535
vn -0.716424 0.488847 0.497760
vn -0.762566 0.646107 -0.031556
vn -0.136570 0.485946 0.863216
vn -0.955578 -0.171005 0.240057
vn 0.756182 -0.131495 0.641012
vn -0.773559 0.436029 -0.459876
vn 0.692429 -0.053539 0.719497
vn -0.673917 0.712007 -0.197185
vn -0.414804 0.223611 0.882007
vn 0.112849 0.109945 -0.987511
vn 0.020703 0.999618 0.018302
vn 0.017402 0.999730 0.015384
vn 0.000000 1.000000 -0.000000
vn 0.000000 1.000000 0.000001
vn 0.006160 0.999930 -0.010089
vn 0.003833 0.999973 -0.006278
vn 0.000000 1.000000 0.000002
vn 0.000000 1.000000 0.000003
vn 0.000000 1.000000 0.000005
vn 0.772176 -0.219808 -0.596179
vn -0.710092 0.071429 -0.700477
vn -0.605095 0.001558 -0.796152
vn 0.665490 -0.248952 -0.703667
vn -0.767205 -0.431410 -0.474593
vn -0.868831 -0.433668 0.238838
vn -0.658437 0.745140 0.105655
vn -0.588122 0.738701 -0.329173
vn 0.837642 -0.221351 0.499313
vn 0.943175 -0.255226 -0.212745
vn 0.485427 0.858272 -0.166356
vn 0.414594 0.869533 0.268258
vn 0.046480 0.837825 0.543931
vn 0.258126 -0.286172 0.922727
vn 0.522965 -0.304361 -0.796136
vn -0.183782 -0.402753 -0.896634
vn -0.219520 0.765618 -0.604663
vn 0.212470 0.817286 -0.535569
vn -0.452528 -0.348399 0.820856
vn -0.385998 0.790979 0.474685
vn -0.229225 0.951750 -0.203986
vn 0.062014 0.984741 -0.162481
vn -0.271676 0.958251 0.088900
vn 0.019562 0.991241 0.130406
vn 0.120304 -0.483047 -0.867275
vn -0.715201 -0.142186 -0.684255
vn -0.039491 0.856685 -0.514267
vn 0.429090 0.668508 -0.607410
vn -0.282083 0.038972 0.958586
vn 0.547716 -0.326701 0.770226
vn 0.643910 0.741356 0.188940
vn 0.175420 0.941710 0.286966
vn -0.170537 0.982696 -0.071902
vn 0.358135 0.912076 -0.199438
vn 0.787286 -0.604297 -0.122379
vn 0.763573 0.597491 -0.244758
vn -0.969695 0.125828 0.209387
usemtl Mushrooms_material
s 1
f 33/1/1 34/2/2 28/3/3 25/4/4
f 21/5/5 22/6/6 3/7/7 2/8/8
f 8/9/9 5/10/10 24/11/11 23/12/12
f 8/9/9 7/13/13 6/14/14 5/10/10
f 87/15/15 88/16/16 13/17/17 14/18/18
f 23/12/12 4/19/19 10/20/20
f 7/13/13 8/9/9 12/21/21 11/22/22
f 22/6/6 7/13/13 11/22/22 9/23/23
f 14/18/18 13/17/17 17/24/24 18/25/25
f 89/26/26 87/15/15 14/18/18 16/27/27
f 90/28/28 89/26/26 16/27/27 15/29/29
f 88/16/16 90/28/28 15/29/29 13/17/17
f 19/30/30 20/31/31 18/25/25 17/24/24
f 16/27/27 14/18/18 18/25/25 20/31/31
f 15/29/29 16/27/27 20/31/31 19/30/30
f 13/17/17 15/29/29 19/30/30 17/24/24
f 6/14/14 7/13/13 22/6/6 21/5/5
f 23/12/12 24/11/11 79/32/32 78/33/33
f 8/9/9 23/12/12 10/20/20 12/21/21
f 36/34/34 35/35/35 26/36/36 27/37/37
f 36/34/34 27/37/37 31/38/38 38/39/39
f 34/2/2 24/11/11 30/40/40 37/41/41
f 1/42/42 24/11/11 34/2/2 33/1/1
f 21/5/5 2/8/8 35/35/35 36/34/34
f 21/5/5 36/34/34 38/39/39 29/43/43
f 28/3/3 34/2/2 37/41/41 32/44/44
f 28/3/3 32/44/44 44/45/45 42/46/46
f 31/38/38 27/37/37 41/47/47 43/48/48
f 25/4/4 28/3/3 42/46/46 39/49/49
f 27/37/37 26/36/36 40/50/50 41/47/47
f 32/44/44 37/41/41 38/39/39 31/38/38
f 32/44/44 31/38/38 43/48/48 44/45/45
f 44/45/45 43/48/48 47/51/51 48/52/52
f 42/46/46 44/45/45 48/52/52 46/53/53
f 43/48/48 41/47/47 45/54/54 47/51/51
f 42/46/46 46/53/53 39/49/49
f 40/50/50 45/54/54 41/47/47
f 21/5/5 29/43/43 6/14/14
f 5/10/10 30/40/40 24/11/11
f 38/39/39 37/41/41 53/55/55 54/56/56
f 5/10/10 6/14/14 50/57/57 49/58/58
f 30/40/40 5/10/10 49/58/58 53/55/55
f 6/14/14 29/43/43 50/57/57
f 37/41/41 30/40/40 53/55/55
f 29/43/43 38/39/39 54/56/56 50/57/57
f 55/40/59 59/10/60 121/58/61 123/55/62
f 78/33/33 79/32/32 83/59/63 82/60/64
f 24/11/11 1/42/42 76/61/65 79/32/32
f 4/19/19 23/12/12 78/33/33 77/62/66
f 79/32/32 76/61/65 80/63/67 83/59/63
f 77/62/66 78/33/33 82/60/64 81/64/68
f 82/60/64 83/59/63 85/65/69 84/66/70
f 82/60/64 84/66/70 81/64/68
f 85/65/69 83/59/63 80/63/67
f 22/6/6 9/23/23 86/67/71
f 3/7/7 22/6/6 86/67/71
f 12/21/21 10/20/20 87/15/15 89/26/26
f 11/22/22 12/21/21 89/26/26 90/28/28
f 9/23/23 11/22/22 90/28/28 88/16/16
f 26/36/36 35/35/35 92/68/72 91/69/73
f 91/69/73 92/68/72 94/70/74 93/71/74
f 93/71/74 94/70/74 96/72/75 95/73/75
f 95/73/75 96/72/75 98/74/75 97/75/75
f 85/65/69 80/63/67 100/76/76 101/77/77
f 101/77/77 100/76/76 102/78/74 103/79/74
f 103/79/74 102/78/74 104/80/78 105/81/79
f 105/81/79 104/80/78 106/82/80
f 97/75/75 98/74/75 99/83/75
f 57/43/81 120/39/82 124/56/83 122/57/84
f 59/10/60 57/14/81 122/57/84 121/58/61
f 120/39/82 55/41/59 123/55/62 124/56/83
usemtl Mushrooms_head
f 52/84/85 64/85/86 71/86/87 65/87/88
f 58/88/89 63/89/90 70/90/91 67/91/92
f 58/88/89 67/91/92 69/92/93 61/93/94
f 51/94/95 60/95/96 68/96/97 62/97/98
f 51/94/95 62/97/98 70/90/91 63/89/90
f 56/98/99 66/99/100 71/86/87 64/85/86
f 52/84/85 65/87/88 68/96/97 60/95/96
f 56/98/99 61/93/94 69/92/93 66/99/100
f 62/97/98 68/96/97 75/100/101 72/101/102
f 75/100/101 73/102/103 74/103/104 72/101/102
f 65/87/88 75/100/101 68/96/97
f 66/99/100 69/92/93 74/103/104 73/102/103
f 65/87/88 71/86/87 73/102/103 75/100/101
f 67/91/92 70/90/91 72/101/102 74/103/104
f 67/91/92 74/103/104 69/92/93
f 62/97/98 72/101/102 70/90/91
f 66/99/100 73/102/103 71/86/87
f 64/104/86 52/105/85 60/106/96 56/107/99
f 60/106/96 51/108/95 61/109/94 56/107/99
f 63/110/90 58/111/89 61/109/94 51/108/95
f 107/94/105 110/95/106 116/96/107 112/97/108
f 108/98/109 111/93/110 117/92/111 115/99/112
f 114/87/113 119/100/114 116/96/107
f 110/106/106 107/108/105 111/109/110 108/107/109
f 109/88/115 118/91/116 117/92/111 111/93/110
f 107/94/105 112/97/108 118/90/116 109/89/115
f 108/98/109 115/99/112 114/86/113 113/85/117
f 113/84/117 114/87/113 116/96/107 110/95/106
f 115/99/112 119/102/114 114/86/113
f 113/105/117 110/106/106 108/107/109
f 109/111/115 111/109/110 107/108/105
f 112/97/108 116/96/107 119/101/114
f 115/99/112 117/92/111 119/102/114
f 118/91/116 119/103/114 117/92/111
f 112/97/108 119/101/114 118/90/116
