# Blender v2.66 (sub 1) OBJ File: ''
# www.blender.org
mtllib plane.mtl
o Cube
v 19.500000 -1.000000 -0.500000
v 19.500000 -1.000000 19.500000
v -0.500000 -1.000000 19.499998
v -0.499996 -1.000000 -0.500004
v 19.500004 0.000000 -0.499995
v 19.499994 0.000000 19.500006
v -0.500004 0.000000 19.499996
v -0.500000 0.000000 -0.500001
vt 0.000000 0.000000
vt 1.000000 0.000000
vt 1.000000 1.000000
vt 0.000000 1.000000
vn 0.000000 -1.000000 0.000000
vn 0.000000 1.000000 0.000000
vn 1.000000 0.000001 0.000000
vn -0.000000 -0.000002 1.000000
vn -1.000000 -0.000004 -0.000000
vn 0.000000 0.000004 -1.000000
usemtl Material
s off
f 1/1/1 2/2/1 3/3/1 4/4/1
f 5/1/2 8/2/2 7/3/2 6/4/2
f 1/1/3 5/2/3 6/3/3 2/4/3
f 2/1/4 6/2/4 7/3/4 3/4/4
f 3/1/5 7/2/5 8/3/5 4/4/5
f 5/1/6 1/2/6 4/3/6 8/4/6
