# Blender v2.69 (sub 0) OBJ File: 'wall.blend'
# www.blender.org
mtllib ..\..\content\wall.mtl
o Wall_Wall_mesh
v -0.482000 0.000000 0.500000
v -0.500000 0.000000 0.482000
v -0.500000 0.000000 -0.482000
v -0.482000 0.000000 -0.500000
v 0.482000 0.000000 -0.500000
v 0.500000 0.000000 -0.482000
v 0.500000 0.000000 0.482000
v 0.482000 0.000000 0.500000
v -0.500000 0.482000 0.482000
v -0.482000 0.482000 0.500000
v -0.482000 0.500000 0.482000
v -0.500000 0.482000 -0.482000
v -0.482000 0.500000 -0.482000
v -0.482000 0.482000 -0.500000
v 0.482000 0.482000 -0.500000
v 0.482000 0.500000 -0.482000
v 0.500000 0.482000 -0.482000
v 0.500000 0.482000 0.482000
v 0.482000 0.500000 0.482000
v 0.482000 0.482000 0.500000
v 0.000000 0.241000 0.500000
v 0.500000 0.241000 0.000000
v 0.000000 0.500000 0.000000
v 0.000000 0.241000 -0.500000
v -0.500000 0.241000 0.000000
vt 0.741000 -0.018000
vt 0.259000 -0.018000
vt 0.500000 -0.259000
vt 0.741000 0.259000
vt 0.741000 0.741000
vt 0.500000 0.500000
vt 0.250000 -0.018000
vt 0.259000 0.000000
vt 0.741000 0.000000
vt 0.750000 -0.018000
vt 0.259000 -0.500000
vt 0.259000 0.259000
vt 0.259000 0.741000
vt 0.250000 0.741000
vt 0.250000 0.259000
vt 0.250000 -0.500000
vt 0.741000 0.750000
vt 0.259000 0.750000
vt 0.741000 -0.500000
vt 0.750000 0.259000
vt 0.750000 0.741000
vt 0.750000 -0.500000
vt 0.259000 0.250000
vt 0.741000 0.250000
vn 1.000000 0.000000 0.000000
vn 0.000000 1.000000 0.000000
vn 0.000000 0.000000 -1.000000
vn -1.000000 0.000000 0.000000
vn -0.577350 0.577350 0.577350
vn -0.577350 0.577350 -0.577350
vn 0.577350 0.577350 -0.577350
vn 0.577350 0.577350 0.577350
vn -0.707107 0.000000 0.707107
vn -0.707107 0.707107 0.000000
vn -0.707107 0.000000 -0.707107
vn 0.000000 0.707107 -0.707107
vn 0.707107 0.000000 -0.707107
vn 0.707107 0.707107 0.000000
vn 0.707107 0.000000 0.707107
vn 0.000000 0.707107 0.707107
vn 0.000000 0.000000 1.000000
usemtl Wall_material
s off
f 17/1/1 18/2/1 22/3/1
f 19/4/2 16/5/2 23/6/2
f 14/2/3 15/1/3 24/3/3
f 9/2/4 12/1/4 25/3/4
f 9/2/5 10/7/5 11/8/5
f 12/1/6 13/9/6 14/10/6
f 15/1/7 16/9/7 17/10/7
f 18/2/8 19/8/8 20/7/8
f 1/11/9 10/2/9 9/2/9 2/11/9
f 11/12/10 13/13/10 12/14/10 9/15/10
f 14/2/11 4/11/11 3/16/11 12/7/11
f 13/13/12 16/5/12 15/17/12 14/18/12
f 17/1/13 6/19/13 5/19/13 15/1/13
f 16/5/14 19/4/14 18/20/14 17/21/14
f 20/1/15 8/19/15 7/22/15 18/10/15
f 19/4/16 11/12/16 10/23/16 20/24/16
f 20/1/17 10/2/17 21/3/17
f 10/2/17 1/11/17 21/3/17
f 1/11/17 8/19/17 21/3/17
f 8/19/17 20/1/17 21/3/17
f 18/2/1 7/11/1 22/3/1
f 7/11/1 6/19/1 22/3/1
f 6/19/1 17/1/1 22/3/1
f 16/5/2 13/13/2 23/6/2
f 13/13/2 11/12/2 23/6/2
f 11/12/2 19/4/2 23/6/2
f 15/1/3 5/19/3 24/3/3
f 5/19/3 4/11/3 24/3/3
f 4/11/3 14/2/3 24/3/3
f 12/1/4 3/19/4 25/3/4
f 3/19/4 2/11/4 25/3/4
f 2/11/4 9/2/4 25/3/4
